<svg width="24" height="28" viewBox="0 0 24 28" fill="none" xmlns="http://www.w3.org/2000/svg">
<path d="M1.65763 11.0605C2.14388 10.8831 2.67874 11.1066 2.89982 11.5625L2.93986 11.6572L3.07365 12.0029C3.77371 13.7142 4.95192 15.191 6.47111 16.2539C8.09184 17.3878 10.0224 17.9961 12.0004 17.9961C13.9784 17.9961 15.909 17.3878 17.5297 16.2539C19.1503 15.1201 20.3829 13.5152 21.061 11.6572C21.2503 11.1384 21.8244 10.8712 22.3432 11.0605C22.862 11.2499 23.1292 11.824 22.9399 12.3428C22.2705 14.1771 21.1525 15.8062 19.6977 17.0879L20.7651 18.3555L20.8276 18.4375C21.1129 18.8561 21.0406 19.4312 20.6449 19.7646C20.2488 20.0982 19.669 20.0717 19.3051 19.7187L19.2358 19.6445L18.0844 18.2764C17.2595 18.782 16.3794 19.1832 15.4623 19.4687L15.977 21.7832L15.9936 21.8838C16.0531 22.3873 15.7227 22.8643 15.2172 22.9766C14.7117 23.0888 14.2105 22.7966 14.0512 22.3154L14.0238 22.2168L13.5082 19.8955C13.0101 19.9606 12.5067 19.9961 12.0004 19.9961C11.4938 19.9961 10.99 19.9606 10.4916 19.8955L9.97697 22.2168C9.8572 22.7559 9.3227 23.0962 8.78361 22.9766C8.24451 22.8568 7.90416 22.3223 8.02384 21.7832L8.53751 19.4687C7.62053 19.1831 6.74031 18.7821 5.91544 18.2764L4.76505 19.6445C4.40928 20.0666 3.77821 20.1202 3.35587 19.7646C2.93378 19.4089 2.88017 18.7778 3.23576 18.3555L4.30216 17.0879C2.95874 15.9042 1.90283 14.424 1.22208 12.7598L1.06095 12.3428L1.03068 12.2451C0.905864 11.7538 1.1712 11.238 1.65763 11.0605Z" fill="#71717A"/>
</svg>
