<svg width="108" height="33" viewBox="0 0 108 33" fill="none" xmlns="http://www.w3.org/2000/svg">
<path d="M4.50879 21.684V8.82092L17.2922 15.394V28.297L4.50879 21.684Z" fill="#F24822"/>
<path d="M30.3395 8.8236L17.2617 2.24026V15.4016L30.3395 8.8236Z" fill="#F24822"/>
<path d="M33.0996 12H37.1121V25.3333H33.0996V12Z" fill="#27272A"/>
<path d="M58.1777 6V12.1357C59.1812 11.6241 60.317 11.3331 61.5215 11.333C65.5842 11.333 68.8779 14.6169 68.8779 18.667C68.8778 22.7169 65.5841 26 61.5215 26C57.5858 25.9998 54.3718 22.9186 54.1748 19.0439L54.166 18.667V6H58.1777ZM61.5215 15.333C59.675 15.3332 58.1777 16.8262 58.1777 18.667C58.1779 20.5077 59.6751 21.9998 61.5215 22C63.3681 22 64.8651 20.5078 64.8652 18.667C64.8652 16.826 63.3682 15.333 61.5215 15.333Z" fill="#27272A"/>
<path d="M88.2713 18.6667C88.2713 16.8257 86.7742 15.3333 84.9275 15.3333C83.0808 15.3333 81.5838 16.8257 81.5838 18.6667C81.5838 20.5076 83.0808 22 84.9275 22C86.7742 22 88.2713 20.5076 88.2713 18.6667ZM92.2838 18.6667C92.2838 22.7168 88.9903 26 84.9275 26C80.8648 26 77.5713 22.7168 77.5713 18.6667C77.5713 14.6166 80.8648 11.3333 84.9275 11.3333C88.9903 11.3333 92.2838 14.6166 92.2838 18.6667Z" fill="#27272A"/>
<path d="M52.8281 25.333H48.8154V18.333C48.8153 16.6764 47.4684 15.3332 45.8066 15.333C44.1447 15.333 42.7971 16.6763 42.7969 18.333V25.333H38.7842V18.333C38.7844 14.4672 41.9287 11.333 45.8066 11.333C49.6844 11.3332 52.8279 14.4673 52.8281 18.333V25.333Z" fill="#27272A"/>
<path d="M70.2148 20.6693V6H74.2273V20.6693C74.2274 21.035 74.5244 21.3333 74.8961 21.3333H76.2336V25.3333H74.8961C72.3132 25.3333 70.2149 23.2489 70.2148 20.6693Z" fill="#27272A"/>
<path d="M99.3057 15.4395L101.894 11.667H106.328L101.523 18.6729L106.319 25.667H101.885L99.3057 21.9062L96.7275 25.667H92.293L97.0889 18.6729L92.2842 11.667H96.7197L99.3057 15.4395Z" fill="#27272A"/>
</svg>
