<svg width="121" height="37" viewBox="0 0 121 37" fill="none" xmlns="http://www.w3.org/2000/svg">
<path d="M4.93506 24.3944V9.92354L19.2716 17.3182V31.8341L4.93506 24.3944Z" fill="white"/>
<path d="M33.9038 9.92656L19.2371 2.52031V17.3268L33.9038 9.92656Z" fill="white"/>
<path d="M87.3975 19.7097C87.3975 17.5878 88.1498 15.7745 89.6544 14.2699C91.159 12.7653 92.9626 12.013 95.0652 12.013C97.2064 12.013 99.039 12.7653 100.563 14.2699C102.087 15.7745 102.849 17.5974 102.849 19.7386C102.849 21.8412 102.087 23.6545 100.563 25.1784C99.0583 26.7023 97.245 27.4642 95.1231 27.4642C92.9819 27.4642 91.159 26.7119 89.6544 25.2073C88.1498 23.6834 87.3975 21.8509 87.3975 19.7097ZM91.6509 19.7097C91.6509 20.6742 91.9885 21.494 92.6636 22.1691C93.3388 22.8443 94.1586 23.1819 95.1231 23.1819C96.0683 23.1819 96.8785 22.8443 97.5536 22.1691C98.2481 21.4747 98.5953 20.6549 98.5953 19.7097C98.5953 18.7645 98.2481 17.9543 97.5536 17.2791C96.8592 16.604 96.0394 16.2664 95.0942 16.2664C94.149 16.2664 93.3388 16.604 92.6636 17.2791C91.9885 17.9543 91.6509 18.7645 91.6509 19.7097Z" fill="white"/>
<path d="M79.5834 6.37065H83.8368V22.7189C83.8368 22.7961 83.9043 22.9118 84.0394 23.0661C84.1937 23.2012 84.3191 23.2687 84.4155 23.2687H86.1516L86.1805 27.5221H84.0972C83.8465 27.5221 83.5282 27.4642 83.1424 27.3485C81.4641 26.847 80.355 25.786 79.8149 24.1657C79.6605 23.7027 79.5834 23.3458 79.5834 23.0951V6.37065Z" fill="white"/>
<path d="M62.9304 6.45744H67.1839V12.7653C68.3798 12.2444 69.5372 11.984 70.6561 11.984C72.8165 11.984 74.6394 12.7363 76.1248 14.2409C77.6294 15.7456 78.3817 17.5685 78.3817 19.7097C78.3817 21.8508 77.6197 23.6737 76.0958 25.1784C74.5912 26.6637 72.7683 27.4064 70.6271 27.4064C68.9103 27.4064 67.3575 26.8759 65.9686 25.8149C64.5797 24.754 63.6538 23.394 63.1908 21.7351C63.1523 21.5422 63.104 21.3204 63.0462 21.0696C62.969 20.5295 62.9304 20.2208 62.9304 20.1437V6.45744ZM67.2128 20.1437C67.3285 20.9924 67.7143 21.7062 68.3702 22.2849C69.0453 22.8636 69.8073 23.1529 70.6561 23.1529C71.6013 23.1529 72.4114 22.8153 73.0866 22.1402C73.781 21.465 74.1283 20.6549 74.1283 19.7097C74.1283 18.7452 73.781 17.9253 73.0866 17.2502C72.4114 16.575 71.6013 16.2375 70.6561 16.2375C69.6916 16.2375 68.8717 16.575 68.1966 17.2502C67.5407 17.9253 67.2128 18.7452 67.2128 19.7097V20.1437Z" fill="white"/>
<path d="M54.1979 11.984C55.7218 11.984 57.101 12.3988 58.3356 13.2282C59.5894 14.0577 60.5154 15.1669 61.1133 16.5558C61.5184 17.501 61.721 18.3208 61.721 19.0152V27.4932H57.4675V19.2467C57.4675 19.0538 57.429 18.8802 57.3518 18.7259C57.1589 18.0121 56.7731 17.4238 56.1944 16.9608C55.635 16.4979 54.9791 16.2664 54.2268 16.2664C53.4938 16.2664 52.8476 16.4882 52.2882 16.9319C51.7288 17.3756 51.343 17.9543 51.1308 18.668C51.1308 18.668 51.1211 18.7066 51.1018 18.7837C51.0826 18.8416 51.0633 18.8802 51.044 18.8995C51.044 18.8995 51.0247 19.0634 50.9861 19.3914V27.4932H46.7327V19.1599C46.7327 18.9477 46.7616 18.668 46.8195 18.3208C47.1088 16.5268 47.9576 15.0222 49.3657 13.8069C50.7932 12.5917 52.4039 11.984 54.1979 11.984Z" fill="white"/>
<path d="M41.299 11.8683H45.5235V27.4932H41.299V11.8683Z" fill="white"/>
<path d="M106.688 12.0132L109.899 16.5542L113.11 12.0132H117.654L112.122 19.6978L117.654 27.522H113.308L109.899 22.7867L106.491 27.522H102.145L107.676 19.6978L102.145 12.0132H106.688Z" fill="white"/>
</svg>
