<svg width="24" height="28" viewBox="0 0 24 28" fill="none" xmlns="http://www.w3.org/2000/svg">
<path d="M12.0005 8.00061C14.3273 8.0007 16.6019 8.69176 18.5356 9.98596C20.3484 11.1993 21.7854 12.8915 22.6889 14.8707L22.8628 15.2711L22.8755 15.3043C23.042 15.7533 23.0421 16.247 22.8755 16.6959C22.8713 16.707 22.8673 16.7182 22.8628 16.7291C21.9756 18.8803 20.4694 20.72 18.5356 22.0143C16.6019 23.3085 14.3273 23.9995 12.0005 23.9996C9.67346 23.9996 7.39817 23.3086 5.46433 22.0143C3.53054 20.72 2.02438 18.8803 1.13718 16.7291C1.13268 16.7182 1.1286 16.707 1.12449 16.6959C0.957866 16.247 0.957922 15.7533 1.12449 15.3043L1.13718 15.2711C2.02436 13.12 3.53059 11.2802 5.46433 9.98596C7.39817 8.69167 9.67346 8.00061 12.0005 8.00061ZM12.0005 10.0006C10.0695 10.0006 8.18131 10.5741 6.57664 11.6481C4.9822 12.7153 3.73839 14.2291 3.00046 15.9996C3.73838 17.7704 4.98195 19.2848 6.57664 20.3522C8.18131 21.4262 10.0695 21.9996 12.0005 21.9996C13.9312 21.9995 15.8188 21.4261 17.4233 20.3522C19.0179 19.2849 20.2606 17.7703 20.9985 15.9996C20.2606 14.2293 19.0177 12.7152 17.4233 11.6481C15.8188 10.5742 13.9312 10.0007 12.0005 10.0006ZM14.0005 15.9996C14.0003 14.8954 13.1047 13.9999 12.0005 13.9996C10.896 13.9996 10.0007 14.8952 10.0005 15.9996C10.0005 17.1042 10.8959 17.9996 12.0005 17.9996C13.1048 17.9994 14.0005 17.104 14.0005 15.9996ZM16.0005 15.9996C16.0005 18.2086 14.2094 19.9994 12.0005 19.9996C9.79132 19.9996 8.00046 18.2088 8.00046 15.9996C8.00066 13.7907 9.79144 11.9996 12.0005 11.9996C14.2093 11.9999 16.0003 13.7908 16.0005 15.9996Z" fill="#71717A"/>
</svg>
